
<svg width="17" height="16" viewBox="0 0 17 16" fill="none" xmlns="http://www.w3.org/2000/svg">
    <path fill-rule="evenodd" clip-rule="evenodd" d="M5.71678 1.73438C5.71678 1.3892 5.43696 1.10938 5.09178 1.10938C4.74661 1.10938 4.46678 1.3892 4.46678 1.73438V2.2092C3.00617 2.22867 1.82812 3.41876 1.82812 4.884V12.2186C1.82812 13.696 3.02578 14.8936 4.50317 14.8936H10.5893C10.7276 14.8936 10.8553 14.8487 10.9589 14.7727C10.9844 14.7541 11.0086 14.7333 11.0315 14.7104L15.4294 10.3125C15.6082 10.1337 15.6616 9.86492 15.5649 9.63138C15.4682 9.39783 15.2403 9.24555 14.9875 9.24555H12.6396C11.1622 9.24555 9.96453 10.4432 9.96453 11.9206V13.6436H4.50317C3.71614 13.6436 3.07812 13.0056 3.07812 12.2186V4.884C3.07812 4.10913 3.69657 3.47871 4.46678 3.45941V4.15325C4.46678 4.49843 4.74661 4.77825 5.09178 4.77825C5.43696 4.77825 5.71678 4.49843 5.71678 4.15325V3.45896H7.98514V4.15325C7.98514 4.49843 8.26497 4.77825 8.61014 4.77825C8.95532 4.77825 9.23514 4.49843 9.23514 4.15325V3.45896H11.2836V4.15325C11.2836 4.49843 11.5634 4.77825 11.9086 4.77825C12.2538 4.77825 12.5336 4.49843 12.5336 4.15325V3.45896H12.7173C13.5044 3.45896 14.1424 4.09697 14.1424 4.884V7.23191C14.1424 7.57709 14.4222 7.85691 14.7674 7.85691C15.1126 7.85691 15.3924 7.57709 15.3924 7.23191V4.884C15.3924 3.40661 14.1947 2.20896 12.7173 2.20896H12.5336V1.73438C12.5336 1.3892 12.2538 1.10938 11.9086 1.10938C11.5634 1.10938 11.2836 1.3892 11.2836 1.73438V2.20896H9.23514V1.73438C9.23514 1.3892 8.95532 1.10938 8.61014 1.10938C8.26497 1.10938 7.98514 1.3892 7.98514 1.73438V2.20896H5.71678V1.73438ZM12.6396 10.4956C11.8525 10.4956 11.2145 11.1336 11.2145 11.9206V12.7596L13.4786 10.4956H12.6396ZM5.74996 6.92606C5.74996 7.2107 5.51921 7.44145 5.23457 7.44145C4.94993 7.44145 4.71919 7.2107 4.71919 6.92606C4.71919 6.64142 4.94993 6.41068 5.23457 6.41068C5.51921 6.41068 5.74996 6.64142 5.74996 6.92606ZM10.2338 6.92609C10.2338 7.21073 10.0031 7.44147 9.71842 7.44147C9.43379 7.44147 9.20304 7.21073 9.20304 6.92609C9.20304 6.64145 9.43379 6.41071 9.71842 6.41071C10.0031 6.41071 10.2338 6.64145 10.2338 6.92609ZM10.2338 9.1681C10.2338 9.45274 10.0031 9.68349 9.71842 9.68349C9.43379 9.68349 9.20304 9.45274 9.20304 9.1681C9.20304 8.88347 9.43379 8.65272 9.71842 8.65272C10.0031 8.65272 10.2338 8.88347 10.2338 9.1681ZM11.9604 7.44147C12.2451 7.44147 12.4758 7.21073 12.4758 6.92609C12.4758 6.64145 12.2451 6.41071 11.9604 6.41071C11.6758 6.41071 11.4451 6.64145 11.4451 6.92609C11.4451 7.21073 11.6758 7.44147 11.9604 7.44147ZM7.47667 9.68349C7.76131 9.68349 7.99205 9.45274 7.99205 9.1681C7.99205 8.88347 7.76131 8.65272 7.47667 8.65272C7.19203 8.65272 6.96129 8.88347 6.96129 9.1681C6.96129 9.45274 7.19203 9.68349 7.47667 9.68349ZM5.74991 11.41C5.74991 11.6946 5.51916 11.9254 5.23453 11.9254C4.94989 11.9254 4.71914 11.6946 4.71914 11.41C4.71914 11.1254 4.94989 10.8946 5.23453 10.8946C5.51916 10.8946 5.74991 11.1254 5.74991 11.41ZM5.23453 9.68349C5.51916 9.68349 5.74991 9.45274 5.74991 9.1681C5.74991 8.88347 5.51916 8.65272 5.23453 8.65272C4.94989 8.65272 4.71914 8.88347 4.71914 9.1681C4.71914 9.45274 4.94989 9.68349 5.23453 9.68349ZM7.99205 11.41C7.99205 11.6946 7.76131 11.9254 7.47667 11.9254C7.19203 11.9254 6.96129 11.6946 6.96129 11.41C6.96129 11.1254 7.19203 10.8946 7.47667 10.8946C7.76131 10.8946 7.99205 11.1254 7.99205 11.41ZM7.47667 7.44147C7.76131 7.44147 7.99205 7.21073 7.99205 6.92609C7.99205 6.64145 7.76131 6.41071 7.47667 6.41071C7.19203 6.41071 6.96129 6.64145 6.96129 6.92609C6.96129 7.21073 7.19203 7.44147 7.47667 7.44147Z" fill="#2A5EE3" />
</svg>
