  <svg width="36" height="36" viewBox="0 0 36 36" fill="none" xmlns="http://www.w3.org/2000/svg">
                                                   <path d="M34.2881 5.2882L34.3092 5.26771C35.5464 4.02962 35.5863 2.05599 34.3981 0.867529C33.8388 0.308159 33.0862 0 32.2799 0C31.4255 0 30.6148 0.339693 29.9977 0.956411L27.282 3.85837L17.5689 0.950556L15.5556 2.96437C15.3018 3.21744 15.1623 3.55474 15.1623 3.91319C15.1623 4.27191 15.3018 4.60868 15.5556 4.86175L15.6439 4.9501L22.6597 8.81114L21.6332 9.92509C20.2726 9.04399 18.7565 8.3952 17.1292 8.02477C16.1015 7.79046 15.0504 7.67191 14.0052 7.67191C13.4779 7.67191 12.9575 7.70358 12.4439 7.76026L12.3952 7.70624C12.3723 7.72673 12.3465 7.74988 12.3214 7.77343C6.49044 8.46506 1.69109 12.7116 0.355465 18.575C-0.476404 22.2243 0.163066 25.9792 2.15546 29.1474C4.14784 32.3153 7.25538 34.5178 10.905 35.349C11.9327 35.5833 12.984 35.7019 14.029 35.7019C20.604 35.7019 26.2173 31.2193 27.6792 24.8009C27.9402 23.6559 28.0561 22.5003 28.0308 21.3561C28.1107 21.0629 28.0968 20.7431 27.9728 20.3949C27.7746 18.2282 27.0712 16.123 25.8792 14.2281C25.7343 13.9979 25.5818 13.7738 25.4248 13.5547L26.4669 12.5942L30.3593 19.6663L30.4485 19.7552C30.7019 20.0077 31.0386 20.147 31.3961 20.147C31.7536 20.147 32.0895 20.008 32.3435 19.7549L34.3579 17.7408L31.4308 7.96144L34.2881 5.2882ZM7.01308 31.7457C5.68092 30.8186 4.53531 29.6254 3.64502 28.2099C2.06152 25.6919 1.45904 22.7503 1.9081 19.8386C2.69274 20.05 3.48496 20.3624 3.78912 20.5797C3.77768 20.6606 3.76504 20.7429 3.7524 20.8247C3.63478 21.5882 3.45701 22.7414 4.39706 23.4257C5.21975 24.024 5.97271 23.4644 6.31613 23.1751C6.45398 23.2862 6.6042 23.3968 6.75868 23.511C6.99978 23.6887 7.42503 24.0026 7.57791 24.1935C7.52948 24.3623 7.45829 24.5616 7.3887 24.7558C7.11567 25.5184 6.83319 26.3065 7.35877 26.8603C7.53999 27.0831 8.08179 28.1077 8.22017 28.4766C8.21725 28.5996 8.22629 28.7394 8.238 28.9216C8.25038 29.1093 8.27765 29.5326 8.24971 29.7047C8.24905 29.7046 7.18207 31.0485 7.24367 31.3668L7.01308 31.7457ZM25.9633 24.4092C24.6847 30.022 19.7775 33.9417 14.029 33.9417C13.1151 33.9417 12.1956 33.8379 11.2958 33.6328C10.1938 33.382 9.15024 32.9846 8.18172 32.4622C9.04047 31.736 9.78372 30.5695 9.7949 30.5507C10.0553 30.1107 10.0404 29.5264 9.99409 28.8082C9.9865 28.6879 9.97772 28.5847 9.97945 28.5184C9.97825 28.5598 9.97067 28.5927 9.96508 28.6161C10.1061 27.9916 9.25735 26.5541 8.849 25.9418C8.89118 25.7798 8.98099 25.5294 9.04526 25.3493C9.1517 25.0519 9.26174 24.7445 9.32774 24.4529C9.5703 23.3979 8.59034 22.6751 7.80317 22.0947C7.57844 21.9291 7.34626 21.7577 7.24327 21.6486C6.88894 21.2749 6.29205 20.9866 5.42133 21.6347C5.4369 21.4485 5.46949 21.2376 5.49171 21.0921C5.52099 20.9027 5.54946 20.7134 5.56769 20.5313C5.66895 19.5103 4.56671 18.6999 2.29729 18.12C3.54204 14.0006 6.78755 10.9189 10.8237 9.84539C10.6437 10.285 10.5013 10.7933 10.436 11.385C10.3982 11.7267 10.3492 12.0362 10.306 12.3087C10.1338 13.3965 9.93847 14.6296 11.5009 15.3253C12.3526 15.7057 12.9469 15.7683 13.4247 15.8187C13.6356 15.8407 13.8121 15.8594 13.9955 15.9011C14.0486 16.1656 14.0148 16.7091 14.0011 16.9324C13.9818 17.2441 13.9609 17.5802 14.0606 17.8622C14.1894 18.5738 14.8111 21.1738 17.2292 22.851C16.8889 23.0539 16.4416 23.2616 16.0663 23.3337C15.8627 23.3727 15.6542 23.3988 15.4523 23.4241C14.6267 23.5276 13.496 23.6686 13.0229 24.9727C12.8125 25.5491 12.949 25.9688 13.1006 26.2193C13.4771 26.842 14.2098 26.9402 14.7449 27.0118C14.8311 27.0233 14.9522 27.0396 15.025 27.054C15.3561 27.2966 16.3897 27.9835 17.4611 27.9835C17.9453 27.9835 18.4372 27.843 18.8757 27.4582C19.052 27.3087 19.8879 27.3184 20.2904 27.3236C21.1421 27.3335 21.9464 27.3435 22.4596 26.8246C22.7116 26.5694 22.8403 26.2362 22.8315 25.8599C22.8133 25.1249 24.2204 24.3344 25.3509 23.6991C25.6237 23.546 25.9026 23.3885 26.1736 23.2252C26.1229 23.6205 26.0531 24.0156 25.9633 24.4092ZM26.2527 20.9941C25.9975 21.3173 25.0681 21.8399 24.4887 22.1652C22.975 23.0159 21.2726 23.9723 21.0878 25.5535C20.8661 25.5713 20.5467 25.567 20.3117 25.5644C19.4104 25.5544 18.3914 25.5413 17.7139 26.137C17.4209 26.3942 16.5293 25.9982 16.0201 25.6014C15.7349 25.3788 15.3942 25.3245 15.0325 25.2756C15.1713 25.2403 15.3718 25.2084 15.6708 25.1714C15.8896 25.1438 16.1377 25.113 16.3976 25.0632C17.1866 24.9119 19.2426 24.0486 19.414 22.908C19.4853 22.4333 19.2562 21.9937 18.8147 21.7597C16.1955 20.3759 15.7936 17.5786 15.7781 17.4639L15.7473 17.2167C15.7505 17.1587 15.7544 17.0959 15.7576 17.0419C15.8097 16.2024 15.9066 14.6397 14.6736 14.2622C14.2647 14.1378 13.9166 14.1012 13.6091 14.0689C13.1829 14.0243 12.8152 13.9856 12.218 13.7189C12.0051 13.6242 11.9608 13.5617 11.9608 13.5617C11.9072 13.4516 11.9866 12.9507 12.0446 12.5849C12.0909 12.2927 12.1432 11.9619 12.1857 11.5788C12.2997 10.5494 12.7144 9.90287 13.1101 9.46591C13.4063 9.44475 13.7044 9.43158 14.0056 9.43158C14.9193 9.43158 15.8387 9.53537 16.7386 9.74041C18.0602 10.0416 19.2982 10.5526 20.4216 11.2401L20.3336 11.3354C20.1793 11.4912 20.0385 11.6563 19.9121 11.8293L16.7656 11.0147L15.3859 12.3948C15.1539 12.6261 15.026 12.9342 15.026 13.262C15.026 13.5903 15.1536 13.8988 15.3857 14.1307L15.4845 14.2299L19.1089 16.0692L19.2391 16.1995L21.0785 19.8245L21.1776 19.9234C21.4093 20.1554 21.7178 20.2833 22.0458 20.2833C22.3741 20.2833 22.6826 20.1554 22.9133 19.924L24.2939 18.544L23.4627 15.3329C23.6261 15.2124 23.7815 15.0786 23.9291 14.9328L24.1174 14.7594C24.2096 14.8928 24.3022 15.0258 24.3893 15.1643C25.5115 16.9485 26.1394 18.9459 26.2527 20.9941ZM32.3705 17.2383L31.5069 18.1018L26.9255 9.77686L22.7245 13.65L22.6997 13.6738C22.5063 13.8665 22.2908 14.0223 22.0591 14.1363L21.4174 14.4531L22.3387 18.0107L22.2014 18.148L20.6817 15.1537L20.1555 14.6269L17.1614 13.1079L17.2984 12.971L20.8045 13.8787L21.1177 13.2265C21.2327 12.9881 21.3917 12.766 21.5905 12.5668L25.4756 8.35263L17.2071 3.80196L18.0706 2.93816L27.8221 5.85715L31.2508 2.19237C31.5347 1.91349 31.8993 1.76007 32.2797 1.76007C32.6158 1.76007 32.9261 1.88501 33.1535 2.11201C33.653 2.6115 33.6163 3.4624 33.0737 4.01432L29.4322 7.42043L32.3705 17.2383Z" fill="white"/>
                                                </svg>