 <svg width="49" height="33" viewBox="0 0 49 33" fill="none" xmlns="http://www.w3.org/2000/svg">
                                                   <path d="M44.8181 8.18156H42.0908C41.2726 8.18156 40.7272 7.63605 40.7272 6.81797C40.7272 5.99988 41.2727 5.45437 42.0908 5.45437H46.1817C46.9999 5.45437 47.5453 4.90887 47.5453 4.09078C47.5453 3.27269 46.9998 2.72718 46.1817 2.72718H44.8181V1.36359C44.8181 0.545389 44.2726 0 43.4545 0C42.6364 0 42.0909 0.545506 42.0909 1.36359V2.72718C39.7727 2.72718 38 4.49988 38 6.81809C38 9.13629 39.7727 10.909 42.0909 10.909H44.8182C45.6364 10.909 46.1818 11.4545 46.1818 12.2726C46.1818 13.0907 45.6363 13.6362 44.8182 13.6362H40.7273C39.9091 13.6362 39.3637 14.1817 39.3637 14.9998C39.3637 15.8179 39.9092 16.3634 40.7273 16.3634H42.0909V17.727C42.0909 18.5452 42.6364 19.0905 43.4545 19.0905C44.2726 19.0905 44.8181 18.545 44.8181 17.727V16.3634C47.1363 16.3634 48.909 14.5907 48.909 12.2725C48.909 9.95426 47.1363 8.18156 44.8181 8.18156Z" fill="white"/>
                                                   <path d="M33.0909 22.4286C36.9066 22.4286 40 25.8571 40 28.4286C40 29.8487 38.84 31 37.4091 31H36.5455M29.6364 17.2857C32.4983 17.2857 34.8182 14.9832 34.8182 12.1429C34.8182 9.30254 32.4983 7 29.6364 7M8.90909 22.4286C5.0933 22.4286 2 25.8571 2 28.4286C2 29.8487 3.15998 31 4.59091 31H5.45455M12.3636 17.2857C9.5018 17.2857 7.18182 14.9832 7.18182 12.1429C7.18182 9.30254 9.5018 7 12.3636 7M28.7727 31H13.2273C11.7963 31 10.6364 29.8487 10.6364 28.4286C10.6364 24.1429 15.8182 22.4286 21 22.4286C26.1818 22.4286 31.3636 24.1429 31.3636 28.4286C31.3636 29.8487 30.2036 31 28.7727 31ZM26.1818 12.1429C26.1818 14.9832 23.8619 17.2857 21 17.2857C18.1381 17.2857 15.8182 14.9832 15.8182 12.1429C15.8182 9.30254 18.1381 7 21 7C23.8619 7 26.1818 9.30254 26.1818 12.1429Z" stroke="white" stroke-width="3" stroke-linecap="round" stroke-linejoin="round"/>
                                                </svg>