      <svg width="34" height="33" viewBox="0 0 34 33" fill="none" xmlns="http://www.w3.org/2000/svg">
                                                   <path d="M8.30739 14.0306C7.58899 11.3785 8.13095 8.4621 9.93327 6.20873M25.693 14.0305C26.4114 11.3784 25.8694 8.46202 24.067 6.20866M2.5131 15.5757C1.25619 10.9414 2.30852 5.82242 5.67009 2M31.4821 15.5757C32.739 10.9415 31.6867 5.82248 28.325 2.00006M17.0002 20.6185V11.7202M7.25028 25.8093H13.2502M6.80028 31H27.2C28.8802 31 29.7203 31 30.362 30.6767C30.9265 30.3924 31.3855 29.9386 31.673 29.3805C32 28.746 32 27.9154 32 26.2542V25.3644C32 23.7032 32 22.8727 31.673 22.2381C31.3855 21.68 30.9265 21.2263 30.362 20.9419C29.7203 20.6185 28.8802 20.6185 27.2 20.6185H6.80028C5.12015 20.6185 4.28007 20.6185 3.63834 20.9419C3.07387 21.2263 2.61493 21.68 2.32731 22.2381C2.00033 22.8727 2.00033 23.7032 2.00033 25.3644V26.2542C2.00033 27.9154 2.00033 28.746 2.32731 29.3805C2.61493 29.9386 3.07387 30.3924 3.63834 30.6767C4.28007 31 5.12015 31 6.80028 31Z" stroke="white" stroke-width="3" stroke-linecap="round" stroke-linejoin="round"/>
                                                </svg>