      <svg width="42" height="33" viewBox="0 0 42 33" fill="none" xmlns="http://www.w3.org/2000/svg">
                                                   <path d="M40.3811 21.5937V19.9658C40.3811 16.5441 37.5974 13.7602 34.1755 13.7602H31.7709L29.7646 8.33766C29.3455 7.20497 28.3742 6.37703 27.2262 6.11453V2.24839C27.2262 1.00857 26.2176 0 24.9778 0C21.9401 0 19.132 2.37234 19.132 6.02569H18.2515C13.0179 6.02569 8.51575 9.58609 7.27199 14.5945C4.46742 15.8634 2.38949 18.4639 1.84808 21.5846H1.7987C0.805301 21.5846 0 22.3899 0 23.3834C0 24.3465 0.757477 25.1304 1.70879 25.1776V25.362C1.70879 26.6018 2.71737 27.6104 3.95719 27.6104H7.0017C7.61242 30.1824 9.92718 32.1019 12.6832 32.1019C15.4392 32.1019 17.754 30.1823 18.3647 27.6104H24.7259C25.3367 30.1824 27.6514 32.1019 30.4075 32.1019C33.1636 32.1019 35.4783 30.1823 36.089 27.6104H38.1328C39.3726 27.6104 40.3812 26.6018 40.3812 25.362V25.173C41.2901 25.0827 42 24.3161 42 23.3834C42 22.4507 41.2901 21.6841 40.3811 21.5937ZM26.4443 8.72386C26.7951 8.72386 27.1126 8.94493 27.2343 9.27388L28.8942 13.7602H22.3041V8.72386H26.4443ZM24.5282 2.73016V6.02577H21.8301C21.8302 4.13979 23.0689 2.93984 24.5282 2.73016ZM18.2516 8.72386C18.8067 8.72386 19.0496 8.72386 19.606 8.72386V13.7602C10.6583 13.7602 10.9259 13.7488 10.394 13.7902C11.7573 10.7622 14.7947 8.72386 18.2516 8.72386ZM12.6832 29.4038C10.9504 29.4038 9.54073 27.9941 9.54073 26.2612C9.54073 24.5289 10.9499 23.1188 12.6832 23.1188C14.4161 23.1188 15.8257 24.5286 15.8257 26.2612C15.8256 27.9941 14.4158 29.4038 12.6832 29.4038ZM30.4075 29.4038C28.6747 29.4038 27.265 27.9941 27.265 26.2612C27.265 24.5289 28.6743 23.1188 30.4075 23.1188C32.1404 23.1188 33.55 24.5286 33.55 26.2612C33.55 27.9941 32.1403 29.4038 30.4075 29.4038ZM36.0908 24.9122C35.4788 22.3322 33.1569 20.4264 30.4195 20.421C30.4155 20.421 30.4114 20.4208 30.4074 20.4208C30.4034 20.4208 30.3994 20.421 30.3954 20.421C27.6997 20.4263 25.346 22.2901 24.7241 24.9122H18.3663C17.7311 22.2344 15.2611 20.2927 12.4035 20.4278C9.75073 20.554 7.5842 22.4479 6.99973 24.9122H4.4068V23.2034C4.4068 19.9553 6.71475 17.2364 9.77673 16.5996C10.7317 16.4021 9.16929 16.4583 34.1755 16.4583C36.1095 16.4583 37.683 18.0318 37.683 19.9657V24.9122H36.0908Z" fill="white"/>
                                                   <path d="M30.4072 27.6698C31.1854 27.6698 31.8163 27.0389 31.8163 26.2607C31.8163 25.4825 31.1854 24.8516 30.4072 24.8516C29.6289 24.8516 28.998 25.4825 28.998 26.2607C28.998 27.0389 29.6289 27.6698 30.4072 27.6698Z" fill="white"/>
                                                   <path d="M12.6828 27.6698C13.4611 27.6698 14.0919 27.0389 14.0919 26.2607C14.0919 25.4825 13.4611 24.8516 12.6828 24.8516C11.9046 24.8516 11.2737 25.4825 11.2737 26.2607C11.2737 27.0389 11.9046 27.6698 12.6828 27.6698Z" fill="white"/>
                                                </svg>