        <svg width="25" height="31" viewBox="0 0 25 31" fill="none" xmlns="http://www.w3.org/2000/svg">
                                                   <path d="M20 20V24.2C20 25.8801 20 26.7203 19.673 27.362C19.3854 27.9265 18.9264 28.3854 18.362 28.673C17.7203 29 16.8802 29 15.2 29H6.8C5.11985 29 4.27976 29 3.63803 28.673C3.07354 28.3854 2.61459 27.9265 2.32698 27.362C2 26.7203 2 25.8801 2 24.2V5.85715C2 5.06038 2 4.66197 2.07521 4.33244C2.33165 3.20895 3.20895 2.33165 4.33244 2.07521C4.66197 2 5.06038 2 5.85715 2H11M9.5 24.5H12.5M23 4.25005C22.25 4.06402 21.0277 4.05717 20 4.06401M20 4.06401C19.6563 4.06631 19.8641 4.0517 19.4 4.06401C18.1889 4.1018 17.0024 4.60517 17 6.0313C16.9973 7.55056 18.5 8.00005 20 8.00005C21.5 8.00005 23 8.34684 23 9.96879C23 11.1877 21.7887 11.7218 20.2792 11.8986C19.0791 11.8986 18.5 11.9375 17 11.75M20 4.06401V2M20 11.8992V14" stroke="white" stroke-width="3" stroke-linecap="round" stroke-linejoin="round"/>
                                                </svg>