<?xml version="1.0" encoding="iso-8859-1"?>
<!-- Uploaded to: SVG Repo, www.svgrepo.com, Generator: SVG Repo Mixer Tools -->
<svg fill="#ffffff" height="30px" width="36px" version="1.1" id="Layer_1" xmlns="http://www.w3.org/2000/svg" xmlns:xlink="http://www.w3.org/1999/xlink" 
	 viewBox="0 0 512 512" xml:space="preserve">
<g>
	<g>
		<path d="M401.971,0H110.029C84.336,0,63.434,20.903,63.434,46.596V394.76c0,4.527,1.894,8.892,4.924,11.884l100.43,100.43
			c3.034,3.035,7.337,4.926,11.888,4.926c0.003,0,0.008,0,0.011,0H401.97c25.693,0,46.596-20.903,46.596-46.596V46.596
			C448.566,20.903,427.664,0,401.971,0z M163.87,454.628l-43.067-43.065h41.475c0.878,0,1.592,0.714,1.592,1.591V454.628z
			 M414.96,465.403c0,7.163-5.827,12.99-12.99,12.99H197.476v-65.239c0-19.408-15.789-35.197-35.198-35.197H97.04V46.596
			c0-7.163,5.826-12.99,12.989-12.99h291.94c7.163,0,12.99,5.827,12.99,12.99V465.403z"/>
	</g>
</g>
<g>
	<g>
		<path d="M364.692,156.712H147.307c-9.28,0-16.803,7.523-16.803,16.803c0,9.28,7.523,16.803,16.803,16.803h217.386
			c9.28,0,16.803-7.523,16.803-16.803C381.496,164.235,373.973,156.712,364.692,156.712z"/>
	</g>
</g>
<g>
	<g>
		<path d="M364.692,225.955H147.307c-9.28,0-16.803,7.523-16.803,16.803c0,9.28,7.523,16.803,16.803,16.803h217.386
			c9.28,0,16.803-7.523,16.803-16.803C381.496,233.479,373.973,225.955,364.692,225.955z"/>
	</g>
</g>
<g>
	<g>
		<path d="M364.692,295.201H147.307c-9.28,0-16.803,7.523-16.803,16.803c0,9.28,7.523,16.803,16.803,16.803h217.386
			c9.28,0,16.803-7.523,16.803-16.803C381.496,302.725,373.973,295.201,364.692,295.201z"/>
	</g>
</g>
</svg>