  <svg width="32" height="31" viewBox="0 0 32 31" fill="none" xmlns="http://www.w3.org/2000/svg">
                                                   <path d="M25.5965 11.1913C29.1311 11.1913 31.9964 14.0566 31.9964 17.5912C31.9964 19.215 31.3917 20.6976 30.3951 21.826L30.395 29.186C30.395 30.0992 29.4279 30.6569 28.6511 30.2561L28.508 30.1695L25.5959 28.1343L22.685 30.1695C21.9365 30.6925 20.9255 30.2193 20.8091 29.3529L20.7981 29.186L20.7965 21.8243C19.8008 20.6962 19.1966 19.2142 19.1966 17.5912C19.1966 14.0566 22.0619 11.1913 25.5965 11.1913ZM27.9941 23.5269C27.2536 23.8263 26.4443 23.9911 25.5965 23.9911C24.7475 23.9911 23.9371 23.8258 23.1958 23.5256L23.1964 26.8833L24.9093 25.6881C25.2705 25.4358 25.7359 25.4042 26.1231 25.5935L26.2837 25.6881L27.9939 26.8833L27.9941 23.5269ZM27.5951 0C29.9348 0 31.8478 1.8264 31.9863 4.13124L31.9944 4.39922L31.9966 12.7911C31.3498 11.9301 30.5333 11.2039 29.5968 10.6621L29.5948 4.39922C29.5948 3.36387 28.8079 2.5123 27.7996 2.4099L27.5951 2.39958H4.39922C3.36387 2.39958 2.5123 3.18644 2.4099 4.19477L2.39958 4.39922V19.5965C2.39958 20.6319 3.18644 21.4835 4.19477 21.5859L4.39922 21.5962L18.6713 21.5982L18.8695 21.922L19.0832 22.2366L19.1966 22.3861L19.195 23.9958H4.39922C2.05959 23.9958 0.146527 22.1694 0.00802852 19.8645L0 19.5965V4.39922C0 2.05959 1.8264 0.146527 4.13124 0.00802852L4.39922 0H27.5951ZM25.5965 13.5909C23.3872 13.5909 21.5962 15.3819 21.5962 17.5912C21.5962 19.8005 23.3872 21.5915 25.5965 21.5915C27.8058 21.5915 29.5968 19.8005 29.5968 17.5912C29.5968 15.3819 27.8058 13.5909 25.5965 13.5909ZM14.7974 15.1906C15.46 15.1906 15.9972 15.7278 15.9972 16.3904C15.9972 16.9978 15.5458 17.4998 14.9602 17.5792L14.7974 17.5902H7.59866C6.93604 17.5902 6.39887 17.053 6.39887 16.3904C6.39887 15.783 6.85024 15.281 7.43586 15.2015L7.59866 15.1906H14.7974ZM24.3957 6.39215C25.0583 6.39215 25.5955 6.92931 25.5955 7.59194C25.5955 8.19934 25.1441 8.70133 24.5585 8.78077L24.3957 8.79172H7.59866C6.93604 8.79172 6.39887 8.25456 6.39887 7.59194C6.39887 6.98453 6.85024 6.48254 7.43586 6.4031L7.59866 6.39215H24.3957Z" fill="white"/>
                                                </svg>