   <svg width="36" height="27" viewBox="0 0 36 27" fill="none" xmlns="http://www.w3.org/2000/svg">
                                                   <path d="M15.2999 5.40039C12.3176 5.40039 9.8999 7.81806 9.8999 10.8004C9.8999 13.7828 12.3176 16.2004 15.2999 16.2004C18.2823 16.2004 20.6999 13.7828 20.6999 10.8004C20.6999 7.81806 18.2823 5.40039 15.2999 5.40039ZM12.5999 10.8004C12.5999 9.30927 13.8087 8.10039 15.2999 8.10039C16.791 8.10039 17.9999 9.30927 17.9999 10.8004C17.9999 12.2915 16.791 13.5004 15.2999 13.5004C13.8087 13.5004 12.5999 12.2915 12.5999 10.8004Z" fill="white"/>
                                                   <path d="M0 4.05C0 1.81325 1.81325 0 4.05 0H26.55C28.7867 0 30.6 1.81325 30.6 4.05V17.55C30.6 19.7867 28.7867 21.6 26.55 21.6H4.05C1.81325 21.6 0 19.7867 0 17.55V4.05ZM4.05 2.7C3.30442 2.7 2.7 3.30442 2.7 4.05V5.4H4.05C4.79558 5.4 5.4 4.79558 5.4 4.05V2.7H4.05ZM2.7 13.5H4.05C6.28675 13.5 8.1 15.3133 8.1 17.55V18.9H22.5V17.55C22.5 15.3133 24.3133 13.5 26.55 13.5H27.9V8.1H26.55C24.3133 8.1 22.5 6.28675 22.5 4.05V2.7H8.1V4.05C8.1 6.28675 6.28675 8.1 4.05 8.1H2.7V13.5ZM27.9 5.4V4.05C27.9 3.30442 27.2956 2.7 26.55 2.7H25.2V4.05C25.2 4.79558 25.8044 5.4 26.55 5.4H27.9ZM27.9 16.2H26.55C25.8044 16.2 25.2 16.8044 25.2 17.55V18.9H26.55C27.2956 18.9 27.9 18.2956 27.9 17.55V16.2ZM2.7 17.55C2.7 18.2956 3.30442 18.9 4.05 18.9H5.4V17.55C5.4 16.8044 4.79558 16.2 4.05 16.2H2.7V17.55Z" fill="white"/>
                                                   <path d="M4.32251 24.2998C5.25619 25.9139 7.00132 26.9998 9.00008 26.9998H27.45C32.1722 26.9998 36 23.1719 36 18.4498V8.9998C36 7.00108 34.9141 5.25594 33.3 4.32227V18.4498C33.3 21.6806 30.6809 24.2998 27.45 24.2998H4.32251Z" fill="white"/>
                                                </svg>